<svg xmlns="http://www.w3.org/2000/svg" width="830" height="310" viewBox="0 0 830 310">
  <defs>
    <path id="a" d="M-174.6-279.2H399v88h-573.6z"/>
    <path id="b" d="M-237.6-1412h678.5v73.8h-678.5z"/>
    <path id="c" d="M-174.6-279.2H399v88h-573.6z"/>
    <path id="f" d="M-174.6-279.2H399v88h-573.6z"/>
    <path id="d" d="M-174.6-279.2H399v88h-573.6z"/>
    <path id="g" d="M-174.6-279.2H399v88h-573.6z"/>
    <path id="e" d="M-174.6-279.2H399v88h-573.6z"/>
    <path id="h" d="M-174.6-279.2H399v88h-573.6z"/>
    <path id="i" d="M-174.6-279.2H399v88h-573.6z"/>
    <path id="j" d="M-174.6-279.2H399v88h-573.6z"/>
    <path id="k" d="M-174.6-279.2H399v88h-573.6z"/>
  </defs>
  <g style="stroke-width:.973014">
    <g style="stroke-width:2.96561">
      <text xml:space="preserve" style="font-style:normal;font-weight:400;font-size:40px;line-height:1.25;font-family:sans-serif;white-space:pre;shape-inside:url(#a);fill:#b2b2bd;fill-opacity:1;stroke:none;stroke-width:1.46444" transform="matrix(.681 0 0 .6847 391.9 198.4)"><tspan x="-174.6" y="-243.2"><tspan style="font-family:&quot;JetBrainsMono Nerd Font Mono&quot;;-inkscape-font-specification:&quot;JetBrainsMono Nerd Font Mono&quot;">~/.../github/nix-prompt</tspan></tspan></text>
      <g style="stroke-width:2.96561">
        <path d="M144.5-1336.3a54.2 54.2 0 1 0 0 108.6h528a54.2 54.2 0 1 0 0-108.6zm165.9 16a6 6 0 0 1 4.2 1.4 5 5 0 0 1 1.6 3.9q0 2.4-1.6 3.7-1.5 1.5-4.2 1.4-2.7 0-4.3-1.4t-1.6-3.7q0-2.6 1.6-3.9a6 6 0 0 1 4.3-1.5m196.8 0a6 6 0 0 1 4.3 1.4 5 5 0 0 1 1.6 3.9q0 2.4-1.6 3.7-1.6 1.5-4.3 1.4-2.7 0-4.2-1.4-1.6-1.3-1.6-3.7 0-2.6 1.6-3.9a6 6 0 0 1 4.2-1.5m80.6 3.8h7.4v33.4h8.6l12.6-18.6h8.5l-14.5 21.4 15.3 23.7H617l-13.1-20.1h-8.8v20h-7.4zm-188 2h7.4v12.8h18.4v6.7h-18.4v26.5q0 2.3 1.3 3.7t3.6 1.4h13.1v6.8h-13.1q-5.6 0-9-3.2-3.3-3.3-3.3-8.7v-26.5h-13v-6.7h13zm-236.4 1.2q1.6 0 2.6 1 1.2 1.3 1.2 3v4.2h.8l5.6 1q1.6.5 2.5 1.8t.6 2.8q-.3 1.4-1.6 2.4t-2.8.7l-5.6-1q-5.6-.9-9.5.8-3.2 1.2-3.5 3.3-.3 1.4.1 2.4.3.6 1.7 1.7 2 1.2 8.7 3l.4.2q7.6 2.2 10.8 4a11 11 0 0 1 4.3 4.7 12 12 0 0 1 .7 7.2q-1.1 6.5-7.9 9.2-2.6 1-5.3 1.2v4.2q0 1.6-1.2 2.7-1 1.2-2.6 1.2t-2.7-1.3a3 3 0 0 1-1.1-2.6v-4.4h-.2a40 40 0 0 1-11-3q-1.5-.7-2-2.3-.7-1.5 0-2.9t2.2-2q1.5-.7 2.8.2 4 1.6 9.2 2.4 5.7.8 9-.4 2.9-1.2 3.3-3.7.3-1.5-.2-2.2-.3-.8-1.5-1.7-2.2-1.4-9-3.3h-.3a45 45 0 0 1-10.8-4q-3-2-4.2-4.8-1.4-3-.8-7.2 1.3-6.3 8.2-9 2.2-.8 5.3-1.5v-4q0-1.7 1-3 1.2-1 2.8-1m98.9 10.7q6.8 0 10.8 4.2t4 11.4v30.4h-7.3v-29q0-5.2-2.7-8a9 9 0 0 0-7-2.7q-4.5 0-7.2 2.8-2.7 3-2.7 8.2v28.7H243v-45.1h7.3v8.6h.1a10 10 0 0 1 3.7-7 13 13 0 0 1 8.3-2.5m198.7 0q7 0 10.8 4.3t3.9 12v3.8h-7.4v-3.8q0-9.9-9.6-9.9-4.8 0-7.4 2.8-2.5 2.9-2.5 8v28.8h-7.4v-45.1h7.4v8.6h.1q.6-4.4 3.7-7 3-2.5 8.4-2.5m94.9 0q7.8 0 12.5 4.2a15 15 0 0 1 5.1 11.4h-7.4a9 9 0 0 0-3-6.6 11 11 0 0 0-7.2-2.4q-4.8 0-7.8 2.8t-2.9 7.8v12.4q0 5.1 2.9 7.8 3 2.8 7.8 2.8 4.6 0 7.3-2.4a9 9 0 0 0 3-6.6h7.3a15 15 0 0 1-5 11.4 18 18 0 0 1-12.6 4.2q-8.3 0-13.1-4.6-5-4.6-5-12.6v-12.3q0-8 5-12.7 4.9-4.5 13-4.6m96 .2h3.6q6.5 0 10.6 3.3a11 11 0 0 1 4.5 8.4h-7.4a5 5 0 0 0-2.3-4 9 9 0 0 0-5.4-1.5h-3.6q-3.8 0-6 1.8a6 6 0 0 0-2 4.6q0 4.8 4.3 5.4l11.6 1.7q11.5 1.6 11.5 13.4 0 6.3-4.2 9.9a18 18 0 0 1-11.6 3.4h-3.6q-7.6 0-11.8-3.3a12 12 0 0 1-4-9.7h7.3a6 6 0 0 0 2.2 5 10 10 0 0 0 6.3 1.6h3.6q4 0 6.3-1.8a6 6 0 0 0 2.3-5q0-6-5.3-6.6l-12.5-1.8q-4.6-.7-7.2-3.8a13 13 0 0 1-2.5-8.4q0-6 4-9.2 4.1-3.4 11.3-3.4m-358.8.7H315v38.3H330v6.8h-38.6v-6.8h16v-31.6h-14.4zm45.7 0h8.7l9 13.9 1 2 1 1.7 1.8-3.7 9-14h8.7l-15 22 15.9 23.2h-8.7l-9.7-14.8a23 23 0 0 1-2-4l-2.3 4-9.7 14.8H338l16-23.2zm151.2 0h21.8v38.3h15.1v6.8h-38.5v-6.8h16v-31.6H490z" style="fill:#f5992e;fill-opacity:1;stroke-width:29.656;stroke-linecap:square;stroke-linejoin:round;paint-order:stroke markers fill;stop-color:#000" transform="matrix(.3363 0 0 .3381 -25.3 456.8)"/>
        <path d="M952.7-880q-1.8 0-3.2 1.3-1.3 1.5-1.3 3.2v49q0 1.8 1.2 3 1.3 1.3 3 1.3h64.1a4 4 0 0 0 3-1.3q1.5-1.2 1.4-3v-42a4 4 0 0 0-1.3-3.2 4 4 0 0 0-3.1-1.2h-36.7v-2.6q0-1.8-1.4-3.2t-3.2-1.4z" style="font-style:normal;font-weight:400;font-size:40px;line-height:1.25;font-family:sans-serif;white-space:pre;shape-inside:url(#b);fill:#f5992e;fill-opacity:1;stroke:none;stroke-width:2.96561" transform="matrix(.3363 0 0 .3381 -86.4 310.5)"/>
        <text xml:space="preserve" style="font-style:normal;font-weight:400;font-size:40px;line-height:1.25;font-family:sans-serif;white-space:pre;shape-inside:url(#c);fill:#f5992e;fill-opacity:1;stroke:none;stroke-width:1.15484" transform="matrix(.8636 0 0 .8682 169.7 282)"><tspan x="-174.6" y="-243.2"><tspan style="font-family:&quot;JetBrainsMono Nerd Font Mono&quot;;-inkscape-font-specification:&quot;JetBrainsMono Nerd Font Mono&quot;">󱞩</tspan></tspan></text>
      </g>
      <path d="M2102.5-1336.3a54.2 54.2 0 1 0 0 108.6h371.7a54.2 54.2 0 1 0 0-108.6zm215.1 16a6 6 0 0 1 4.3 1.4 5 5 0 0 1 1.5 3.9q0 2.4-1.5 3.7-1.6 1.5-4.3 1.4-2.7 0-4.3-1.4t-1.5-3.7q0-2.6 1.5-3.9a6 6 0 0 1 4.3-1.5m-212 .7q4.3 0 7.5 3.1a10 10 0 0 1 3 7.5q0 6-5.2 9.2v25.1q4.5-2.4 10.6-2.4 3 0 5.2-1.1a8 8 0 0 0 3.2-2.7l1.5-3q.6-1.6.7-2.7v-2.7a10 10 0 0 1-5.3-9q0-4.4 3-7.5 3.3-3.2 7.6-3.2t7.4 3.2q3 3.1 3.1 7.5 0 6-5.2 9v1.5l-.1 1.3a52 52 0 0 1-1.7 7.1 20 20 0 0 1-2.3 4.5q-1.6 2.4-3.7 4.2a23.4 23.4 0 0 1-13.4 4.2q-5.4 0-8.2 3.4 3 3 2.9 7.2 0 4.4-3.1 7.5-3.2 3-7.5 3-4.4 0-7.6-3a10 10 0 0 1-3-7.5q0-6 5.3-9.1v-34.8a10 10 0 0 1-5.3-9.2q0-4.4 3-7.5a10 10 0 0 1 7.6-3m0 5.4a5 5 0 0 0-3.8 1.5q-1.5 1.5-1.5 3.7t1.5 3.8a5 5 0 0 0 3.8 1.5 5 5 0 0 0 3.7-1.5q1.5-1.5 1.6-3.8 0-2.2-1.6-3.7a5 5 0 0 0-3.7-1.5m31.8 10.5q-2.2 0-3.7 1.6-1.5 1.5-1.6 3.8 0 2.2 1.6 3.7a5 5 0 0 0 3.7 1.5 5 5 0 0 0 3.7-1.5q1.5-1.5 1.6-3.7 0-2.2-1.6-3.8-1.5-1.5-3.7-1.6m323 .7h7.2v16h15.7v6.6h-15.7v16h-7.2v-16h-15.7v-6.6h15.7zm-248 .4q3 0 5 1.8a10 10 0 0 1 3 4.6 8 8 0 0 1 2.5-4.6q2-1.8 5.2-1.8 4.4 0 6.9 3.3 2.7 3.2 2.6 8.4v34.3h-6.9v-34.4q0-2.7-1.3-4.3t-3.6-1.6-3.5 1.6q-1.3 1.5-1.3 4.2v34.5h-6.1v-34.4q0-2.7-1.3-4.3t-3.5-1.6q-2.4 0-3.6 1.6-1.5 1.5-1.4 4.2v34.5h-6.8v-45.1h6.3v6h.2a8 8 0 0 1 2.4-5q2-1.8 5.2-1.9m54.8 0q8.2 0 12.6 4a14 14 0 0 1 4.4 11v31h-7.3v-8.2h-.1q-.8 4.2-4.2 6.6a17 17 0 0 1-9.4 2.4q-7 0-11-3.9-4.2-3.9-4.2-10.2 0-4.2 2-7.3 1.8-3.1 5.2-4.9a16 16 0 0 1 7.7-1.8h14v-3.5q0-8.7-9.7-8.8-4.2 0-6.9 1.6a5 5 0 0 0-2.7 4.3h-7.4q.3-5.2 4.9-8.7 4.5-3.6 12.1-3.6m100.8 0q6.7 0 10.8 4.2 4 4.2 4 11.4v30.4h-7.4v-29q0-5.2-2.6-8a9 9 0 0 0-7-2.7q-4.5 0-7.3 2.8-2.6 3-2.6 8.2v28.7h-7.4v-45.1h7.4v8.6a10 10 0 0 1 3.8-7 13 13 0 0 1 8.3-2.5m-67.6.9h21.7v38.3h15.2v6.8h-38.6v-6.8h16v-31.6h-14.3zm-36.7 23.6q-3.6 0-5.9 2.2a8 8 0 0 0-2.2 5.7q0 3.8 2.4 6 2.5 2.2 7 2.2 5.4 0 8.6-2.7a9 9 0 0 0 3.2-7.1v-6.3zm-158.1 17a5 5 0 0 0-3.8 1.4q-1.5 1.5-1.5 3.8 0 2.1 1.5 3.8a5 5 0 0 0 3.8 1.5 5 5 0 0 0 3.7-1.5q1.5-1.5 1.6-3.8 0-2.2-1.6-3.8a5 5 0 0 0-3.7-1.5" style="fill:#5f5f87;fill-opacity:1;stroke-width:29.656;stroke-linecap:square;stroke-linejoin:round;paint-order:stroke markers fill;stop-color:#000" transform="matrix(.3363 0 0 .3381 -25.3 456.8)"/>
    </g>
    <g style="stroke-width:2.96561">
      <g style="stroke-width:2.96561">
        <path d="M144.5-1014.9a54.2 54.2 0 1 0 0 108.6h528a54.2 54.2 0 1 0 0-108.6zm165.9 16a6 6 0 0 1 4.2 1.4 5 5 0 0 1 1.6 3.8q0 2.4-1.6 3.8-1.5 1.5-4.2 1.4-2.7 0-4.3-1.4-1.6-1.5-1.6-3.8 0-2.4 1.6-3.8a6 6 0 0 1 4.3-1.5m196.8 0a6 6 0 0 1 4.3 1.4 5 5 0 0 1 1.6 3.8q0 2.4-1.6 3.8-1.6 1.5-4.3 1.4-2.7 0-4.2-1.4-1.6-1.5-1.6-3.8 0-2.4 1.6-3.8a6 6 0 0 1 4.2-1.5m80.6 3.8h7.4v33.4h8.6l12.6-18.7h8.5l-14.5 21.5 15.3 23.7H617L604-955.3h-8.8v20h-7.4zm-188 2h7.4v12.7h18.4v6.8h-18.4v26.5q0 2.3 1.3 3.7t3.6 1.4h13.1v6.8h-13.1q-5.6 0-9-3.2-3.3-3.3-3.3-8.7v-26.5h-13v-6.8h13zm-243.6 3.5h.4q1.1.2 1.8 1.1.8 1 .8 2v.4l-1.8 10.8h16.3l1.9-11.7q.1-1 1-1.7a3 3 0 0 1 2-.7 3 3 0 0 1 2.1.9q.9.8.9 2v.4l-1.7 10.8h9q1.2 0 2 .9 1 .8 1 2.2 0 1.3-1 2.2a3 3 0 0 1-2 .8h-10l-2.7 16.3h10.5q1.4 0 2.1.9 1 .9 1 2.2t-1 2.2q-1 .8-2 1h-11.5l-1.8 11.6q-.3 1-1 1.8-1 .8-2 .6a3 3 0 0 1-2.3-.8q-.8-1-.8-2.2v-.4l1.7-10.7h-16.2l-2 11.7q0 1-.9 1.8t-2 .6a3 3 0 0 1-2.2-.8q-.9-1-.9-2.2v-.4l1.8-10.7h-9a3 3 0 0 1-2.1-1q-1-.8-1-2.1t1-2.2q1-.9 2.2-.9h10l2.5-16.3h-10.5q-1.2 0-2.1-.8t-1-2.2q0-1.5 1-2.2a3 3 0 0 1 2-.9h11.5l1.9-11.7q.1-1.2 1.1-1.8a3 3 0 0 1 2-.8m106.1 8.4q6.8 0 10.8 4.2t4 11.4v30.4h-7.3v-29q0-5.3-2.7-8a9 9 0 0 0-7-2.7q-4.5 0-7.2 2.8-2.7 3-2.7 8.1v28.8H243v-45.2h7.3v8.7h.1a10 10 0 0 1 3.7-7 13 13 0 0 1 8.3-2.5m198.7 0q7 0 10.8 4.3t3.9 12v3.8h-7.4v-3.8q0-9.9-9.6-9.9-4.8 0-7.4 2.8-2.5 2.8-2.5 8v28.8h-7.4v-45.2h7.4v8.7h.1q.6-4.4 3.7-7 3-2.4 8.4-2.5m94.9 0q7.8 0 12.5 4.2a15 15 0 0 1 5.1 11.4h-7.4a9 9 0 0 0-3-6.6 11 11 0 0 0-7.2-2.4q-4.8 0-7.8 2.8t-2.9 7.8v12.3q0 5 2.9 8 3 2.7 7.8 2.7 4.5 0 7.3-2.4a9 9 0 0 0 3-6.6h7.3a15 15 0 0 1-5 11.4 18 18 0 0 1-12.6 4.2q-8.3 0-13.1-4.6-5-4.5-5-12.7V-964q0-8 5-12.6t13-4.6m96 .2h3.6q6.5 0 10.6 3.3a11 11 0 0 1 4.5 8.4h-7.4a5 5 0 0 0-2.3-4 9 9 0 0 0-5.4-1.5h-3.6q-3.8 0-6 1.7a6 6 0 0 0-2 4.7q0 4.8 4.3 5.4l11.6 1.7q11.5 1.5 11.5 13.4 0 6.3-4.2 9.9a18 18 0 0 1-11.6 3.4h-3.6q-7.5 0-11.8-3.4a12 12 0 0 1-4-9.6h7.3a6 6 0 0 0 2.2 4.9 10 10 0 0 0 6.3 1.7h3.6q4 0 6.3-1.8a6 6 0 0 0 2.3-5q0-6-5.3-6.6l-12.5-1.8q-4.6-.7-7.2-3.8a13 13 0 0 1-2.5-8.4q0-6 4-9.3T652-981m-358.8.6H315v38.4H330v6.8h-38.6v-6.8h16v-31.6h-14.4zm45.7 0h8.7l9 14 1 2 1 1.7 1.8-3.7 9-14h8.7l-15 22 15.9 23.2h-8.7l-9.7-14.8a23 23 0 0 1-2-4l-2.3 4-9.7 14.8H338l16-23.3zm151.2 0h21.8v38.4h15.1v6.8h-38.5v-6.8h16v-31.6H490zm-333.5 11.2-2.6 16.3H170l2.7-16.3z" style="fill:#785cea;fill-opacity:1;stroke-width:29.656;stroke-linecap:square;stroke-linejoin:round;paint-order:stroke markers fill;stop-color:#000" transform="matrix(.3363 0 0 .3381 22.1 426.6)"/>
        <path d="M1394.3-559.4q-1.8 0-3.2 1.4-1.3 1.4-1.3 3.2v49q0 1.7 1.2 3 1.4 1.3 3 1.3h64a4 4 0 0 0 3.2-1.3q1.3-1.3 1.3-3V-548a4 4 0 0 0-1.3-3 4 4 0 0 0-3.1-1.4h-36.8v-2.5q0-1.8-1.3-3.2t-3.2-1.4z" style="font-style:normal;font-weight:400;font-size:40px;line-height:1.25;font-family:sans-serif;white-space:pre;shape-inside:url(#b);fill:#785cea;fill-opacity:1;stroke:none;stroke-width:2.96561" transform="matrix(.3363 0 0 .3381 -39 280.5)"/>
        <text xml:space="preserve" style="font-style:normal;font-weight:400;font-size:40px;line-height:1.25;font-family:sans-serif;white-space:pre;shape-inside:url(#d);fill:#785cea;fill-opacity:1;stroke:none;stroke-width:1.15484" transform="matrix(.8636 0 0 .8682 217.1 360.4)"><tspan x="-174.6" y="-243.2"><tspan style="font-family:&quot;JetBrainsMono Nerd Font Mono&quot;;-inkscape-font-specification:&quot;JetBrainsMono Nerd Font Mono&quot;">󱞩</tspan></tspan></text>
        <text xml:space="preserve" style="font-style:normal;font-weight:400;font-size:40px;line-height:1.25;font-family:sans-serif;white-space:pre;shape-inside:url(#e);fill:#785cea;fill-opacity:1;stroke:none;stroke-width:1.44613" transform="matrix(.6897 0 0 .6934 398.8 279)"><tspan x="-174.6" y="-243.2"><tspan style="font-family:&quot;JetBrainsMono Nerd Font Mono&quot;;-inkscape-font-specification:&quot;JetBrainsMono Nerd Font Mono&quot;">07:31:28</tspan></tspan></text>
      </g>
      <text xml:space="preserve" style="font-style:normal;font-weight:400;font-size:40px;line-height:1.25;font-family:sans-serif;white-space:pre;shape-inside:url(#f);fill:#b2b2bd;fill-opacity:1;stroke:none;stroke-width:1.46444" transform="matrix(.681 0 0 .6847 587.8 276.8)"><tspan x="-174.6" y="-243.2"><tspan style="font-family:&quot;JetBrainsMono Nerd Font Mono&quot;;-inkscape-font-specification:&quot;JetBrainsMono Nerd Font Mono&quot;">/var/log</tspan></tspan></text>
      <text xml:space="preserve" style="font-style:normal;font-weight:400;font-size:40px;line-height:1.25;font-family:sans-serif;white-space:pre;shape-inside:url(#g);fill:#b2b2bd;fill-opacity:1;stroke:none;stroke-width:1.46444" transform="matrix(.681 0 0 .6847 587.8 276.8)"><tspan x="-174.6" y="-243.2"><tspan style="font-family:&quot;JetBrainsMono Nerd Font Mono&quot;;-inkscape-font-specification:&quot;JetBrainsMono Nerd Font Mono&quot;">/var/log/supervisor</tspan></tspan></text>
    </g>
    <g style="stroke-width:2.96561">
      <text xml:space="preserve" style="font-style:normal;font-weight:400;font-size:40px;line-height:1.25;font-family:sans-serif;white-space:pre;shape-inside:url(#h);fill:#b2b2bd;fill-opacity:1;stroke:none;stroke-width:1.46444" transform="matrix(.681 0 0 .6847 539 355.2)"><tspan x="-174.6" y="-243.2"><tspan style="font-family:&quot;JetBrainsMono Nerd Font Mono&quot;;-inkscape-font-specification:&quot;JetBrainsMono Nerd Font Mono&quot;">.../docker/storage</tspan></tspan></text>
      <g style="fill:#0adb8f;fill-opacity:1;stroke-width:2.96561">
        <path d="M144.5-693.5a54.2 54.2 0 1 0 0 108.6h677.8a54.2 54.2 0 1 0 0-108.6zm165.9 15.9a6 6 0 0 1 4.2 1.5 5 5 0 0 1 1.6 3.8q0 2.4-1.6 3.8-1.5 1.4-4.2 1.4t-4.3-1.4q-1.6-1.5-1.6-3.8 0-2.4 1.6-3.8a6 6 0 0 1 4.3-1.5m147.6 3q9.4 0 14.7 5.5 5.4 5.3 5.4 14.6v22.3q0 6.3-3.5 10.1a13 13 0 0 1-9.6 3.7 13 13 0 0 1-9.6-3.6 13 13 0 0 1-3.5-9.4v-9.5q0-6 2.8-9.4a10 10 0 0 1 8.2-3.3q3.3 0 5.5 1.3 2.2 1.2 3 3.6h.2v-5.8q0-7-3.6-10.6-3.4-3.7-10-3.7-7.3 0-11.5 4.7a20 20 0 0 0-4 13.3v28q0 8.1 4.3 12.8 4.5 4.8 12 4.8h9v6.1h-9a24 24 0 0 1-12-3 20 20 0 0 1-8.1-8.2 27 27 0 0 1-2.8-12.6v-27.9q0-11.1 5.9-17.4a21 21 0 0 1 16.2-6.4m-67 .9h7.3v33.3h8.6l12.7-18.6h8.4l-14.5 21.5 15.3 23.6h-8.6l-13.1-20h-8.8v20H391zm98 0h7.3v23.3h.1a10 10 0 0 1 3.7-7 13 13 0 0 1 8.3-2.4q6.7 0 10.8 4.2 4 4.2 4 11.4v30.3H516v-29q0-5.2-2.7-7.9a9 9 0 0 0-7-2.8q-4.5 0-7.2 3-2.7 2.7-2.7 8v28.7H489zm191.7 0h23v47.1q0 2.8 1.6 4.5 1.5 1.5 4.1 1.5h14v6.7h-14q-6 0-9.6-3.4a13 13 0 0 1-3.5-9.3V-667h-15.6zm103.6 0h7.3v13l-.1 10.3q.7-4.4 4-6.9t8.4-2.5q6.9 0 10.9 4.5t4 12.3v13.2q0 7.8-4 12.2-4 4.5-10.9 4.6-5 0-8.3-2.5a10 10 0 0 1-3.9-7v8.6h-7.4zm-641.8 5.4H158a5 5 0 0 1 3.6 1.5 5 5 0 0 1 1.6 3.7v10.3a5 5 0 0 1-1.6 3.8 5 5 0 0 1-3.6 1.5h7.6v5.2h-31v-5.2h7.8a5 5 0 0 1-3.7-1.5 5 5 0 0 1-1.5-3.8V-663a5 5 0 0 1 1.5-3.7 5 5 0 0 1 3.7-1.5m0 5.2v10.3H158V-663zm119.8 3.3q6.8 0 10.8 4.2t4 11.4v30.3h-7.3v-29q0-5-2.7-7.9a9 9 0 0 0-7-2.8q-4.5 0-7.2 3-2.7 2.7-2.7 8v28.7H243v-45h7.3v8.5h.1a10 10 0 0 1 3.7-7 13 13 0 0 1 8.3-2.4m96.7 0q7.8 0 12.6 4.2a15 15 0 0 1 5 11.4h-7.3a9 9 0 0 0-3-6.7 11 11 0 0 0-7.3-2.3q-4.8 0-7.8 2.8-2.8 2.7-2.8 7.7v12.4q0 5 2.8 8 3 2.7 7.8 2.7 4.5 0 7.3-2.4a9 9 0 0 0 3-6.6h7.4a15 15 0 0 1-5.1 11.4A18 18 0 0 1 359-613q-8.2 0-13.1-4.6t-5-12.7v-12.3q0-8 5-12.6t13.1-4.6m239.9 0q3 0 5 1.7a10 10 0 0 1 3 4.7 8 8 0 0 1 2.6-4.7q2-1.7 5.1-1.7 4.4 0 7 3.3t2.5 8.4v34.2h-6.9v-34.3q0-2.7-1.3-4.3-1.2-1.5-3.6-1.6-2.2 0-3.5 1.5-1.3 1.6-1.3 4.3v34.4h-6v-34.3q0-2.7-1.4-4.3t-3.5-1.6q-2.4 0-3.6 1.5-1.4 1.6-1.3 4.3v34.4h-7v-45h6.5v6h.1a8 8 0 0 1 2.4-5q2-2 5.2-1.9m54.8 0q5.3 0 9.2 2.1 4 2.3 6.3 6a18 18 0 0 1 2.2 9.1v8h-28.2v4.3q0 5 2.8 8 3 3 7.7 2.9 4.1 0 6.7-1.6 2.7-1.5 3.3-4.3h7.4q-.8 5.6-5.5 9a21 21 0 0 1-12 3.3q-7.8 0-12.8-4.8a18 18 0 0 1-4.9-13.3v-10.6q0-8.5 4.9-13.3t12.9-4.8m98.5 0q8.2 0 12.5 4a14 14 0 0 1 4.5 11v31h-7.3v-8.3h-.2q-.6 4.2-4.2 6.7a17 17 0 0 1-9.3 2.4q-7 0-11.1-3.9T733-627q0-4.2 1.9-7.3t5.2-4.9a16 16 0 0 1 7.7-1.8h14v-3.5q0-8.8-9.6-8.8-4.3 0-7 1.6a5 5 0 0 0-2.7 4.3h-7.4q.5-5.3 5-8.8t12-3.5m-197 .2q8.2 0 13 4.7t4.7 13.3v10.4q0 8.4-4.8 13.2a17 17 0 0 1-12.9 4.8q-8 0-13-4.8a18 18 0 0 1-4.7-13.3v-10.3q0-8.6 4.8-13.3t13-4.7m-262 .6h21.7v38.4H330v6.7h-38.6v-6.7h16v-31.6h-14.4zm360.5 5.3q-5.1 0-7.8 3-2.7 2.8-2.7 8.1v2.3h21v-2.3q0-5.3-2.8-8.2-2.7-3-7.7-3m147.8.3q-4.5 0-7.2 2.9-2.7 2.8-2.7 8v12.2q0 5 2.7 8t7.2 2.9 7.3-2.5q2.6-2.4 2.6-8v-13q0-5.7-2.6-8a10 10 0 0 0-7.3-2.5m-246.3.3q-4.7 0-7.5 2.7t-2.8 8v12q0 5.2 2.8 8 2.8 2.6 7.5 2.6 5 0 7.6-2.7 2.8-2.6 2.8-8v-12q0-5-2.8-7.9a10 10 0 0 0-7.6-2.7m-90.2 4.6a6 6 0 0 0-4.8 2 8 8 0 0 0-1.8 5.6v9.5q0 3.5 1.8 5.6a6 6 0 0 0 4.8 2 6 6 0 0 0 4.8-2 8 8 0 0 0 1.8-5.6v-9.6q0-3.6-1.8-5.5a6 6 0 0 0-4.8-2M140-637h5.1v13h13v5.2H140v-5.2zm28.4 0h15.7a5 5 0 0 1 3.6 1.5 5 5 0 0 1 1.5 3.7v10.3a5 5 0 0 1-1.5 3.8 5 5 0 0 1-3.6 1.5h7.8v5.2h-31.1v-5.2h7.6a5 5 0 0 1-3.6-1.5 5 5 0 0 1-1.5-3.8v-10.3a5 5 0 0 1 1.5-3.7 5 5 0 0 1 3.6-1.5m580.3 1.7q-3.7 0-6 2.3a8 8 0 0 0-2.2 5.7q0 3.8 2.5 6 2.5 2.1 7 2.1 5.4 0 8.6-2.6a9 9 0 0 0 3.2-7.1v-6.4zm-580.3 3.5v10.3h15.7v-10.3z" style="fill:#0adb8f;fill-opacity:1;stroke-width:29.656;stroke-linecap:square;stroke-linejoin:round;paint-order:stroke markers fill;stop-color:#000" transform="matrix(.3363 0 0 .3381 68.4 396.3)"/>
        <path d="M1111.3-268.8q-1.8 0-3.2 1.3-1.3 1.4-1.3 3.3v48.9q0 1.8 1.2 3 1.4 1.4 3.1 1.3h64a4 4 0 0 0 3.1-1.3q1.3-1.2 1.3-3v-42a4 4 0 0 0-1.3-3.2 4 4 0 0 0-3-1.2h-36.8v-2.5q0-2-1.4-3.3t-3.2-1.3z" style="font-style:normal;font-weight:400;font-size:40px;line-height:1.25;font-family:sans-serif;white-space:pre;shape-inside:url(#b);fill:#0adb8f;fill-opacity:1;stroke:none;stroke-width:2.96561" transform="matrix(.3363 0 0 .3381 7.3 260.7)"/>
        <text xml:space="preserve" style="font-style:normal;font-weight:400;font-size:40px;line-height:1.25;font-family:sans-serif;white-space:pre;shape-inside:url(#i);fill:#0adb8f;fill-opacity:1;stroke:none;stroke-width:1.15484" transform="matrix(.8636 0 0 .8682 263.4 438.9)"><tspan x="-174.6" y="-243.2"><tspan style="font-family:&quot;JetBrainsMono Nerd Font Mono&quot;;-inkscape-font-specification:&quot;JetBrainsMono Nerd Font Mono&quot;">󱞩</tspan></tspan></text>
      </g>
    </g>
    <g style="stroke-width:2.96561">
      <text xml:space="preserve" style="font-style:normal;font-weight:400;font-size:40px;line-height:1.25;font-family:sans-serif;white-space:pre;shape-inside:url(#j);fill:#b2b2bd;fill-opacity:1;stroke:none;stroke-width:1.46444" transform="matrix(.681 0 0 .6847 519.5 433.7)"><tspan x="-174.6" y="-243.2"><tspan style="font-family:&quot;JetBrainsMono Nerd Font Mono&quot;;-inkscape-font-specification:&quot;JetBrainsMono Nerd Font Mono&quot;">~/dotfiles</tspan></tspan></text>
      <g style="fill:#f73569;fill-opacity:1;stroke-width:2.96561">
        <path d="M144.5-372.1a54.2 54.2 0 1 0 0 108.5h476.3a54.2 54.2 0 1 0 0-108.5zm115.4 23.6q8.4 0 13.1 4.8a17 17 0 0 1 5 12.8v26.3a19 19 0 0 1-2.2 9.3 16 16 0 0 1-6.4 6.2 20 20 0 0 1-9.5 2.1q-8.2 0-13.2-4.7a17 17 0 0 1-4.8-13v-26.2q0-8 4.8-12.8a18 18 0 0 1 13.2-4.8m295.2 0a18 18 0 0 1 13 4.7q5 4.6 5 12.7 0 4.2-2.4 9a44 44 0 0 1-8 10.7l-16 16.9h27.1v6.7h-36.1v-6.8l20-21.3q4.3-4.6 6-8.2 2-3.6 1.9-7 0-5-3-7.9a10 10 0 0 0-7.5-3q-5 0-8 3.1a11 11 0 0 0-2.9 8H537q.1-8.1 5.1-12.8a18 18 0 0 1 13-4.8m49.3 0q5.3 0 9.2 2a15 15 0 0 1 8.4 13.8q0 4.8-2.8 8.5-2.7 3.6-7.5 4.7v.2q5.5 1 8.7 5t3.2 9.8q0 5.1-2.4 9.2a16 16 0 0 1-6.7 6.1 21 21 0 0 1-10 2.2q-5.7 0-10-2.2a17 17 0 0 1-6.9-6.1 18 18 0 0 1-2.3-9.2q0-5.7 3.2-9.8 3.2-4 8.6-5v-.2q-4.6-1.1-7.4-4.7a14 14 0 0 1-2.8-8.5 15 15 0 0 1 8.4-13.7 20 20 0 0 1 9.1-2.1m-313.1.8h38v7l-21.1 53h-8l21.2-53.3h-22.8v9.7h-7.3zm99 0h33v7L409-325.5a17 17 0 0 1 11.6 5.1q4.3 4.5 4.3 12v4.1q0 8-5 12.6-4.7 4.6-13.1 4.6t-13.1-4.6a17 17 0 0 1-4.9-12.6h7.4q0 5 2.9 7.8 2.8 3 7.8 2.9 4.8 0 7.7-3 3-2.7 3-7.7v-4.1q0-5-3-7.8-2.9-3-7.7-2.9h-6.5v-6.4L415-341h-24.6zm62.8 0h10v53.2h13.4v6.7h-37v-6.7h16.3v-46.8L439.6-329v-8.5zm-289.4.5h2.5q4.8.3 9.3 2.5 4.5 2.1 8 5.8a30 30 0 0 1 1.8 39.2 29 29 0 0 1-16.4 9.8 28 28 0 0 1-27-9 29 29 0 0 1-7-18 29 29 0 0 1 13-25.4 30 30 0 0 1 15.8-5m-.2 4q-3.1 0-6.3.9-4.2.9-7.5 3.4-7 5.3-9.6 13.8a23 23 0 0 0 1.1 16.6q3.6 8 11.2 12 3.5 2.3 7.6 2.9a23 23 0 0 0 22.2-9q5.6-7.4 5.1-15.6 0-5-2-9.7a25 25 0 0 0-5-8.2 23 23 0 0 0-16.8-7.1m96.4 1q-5 0-8 3.2-2.9 3.1-2.9 8.1v26.3q0 5 3 8.2 3 3 8 3.1 4.8 0 7.8-3.1 3-3.2 3-8.2V-331q0-5-3-8-3-3.3-7.9-3.3m344.5.3q-4.5 0-7.3 2.7a9 9 0 0 0-2.8 7q0 4.5 2.8 7 2.8 2.8 7.3 2.8 4.7 0 7.4-2.7a9 9 0 0 0 2.8-7q0-4.5-2.8-7.1a10 10 0 0 0-7.4-2.7m-246 1.6q3 0 4.9 1.7t1.9 4.5-2 4.5a7 7 0 0 1-4.8 1.6q-3 0-5-1.6a6 6 0 0 1-1.8-4.5q0-2.8 1.8-4.5a7 7 0 0 1 5-1.7m147.6 0q3 0 5 1.7 1.8 1.7 1.8 4.5t-1.9 4.5a7 7 0 0 1-4.9 1.6q-3 0-5-1.6a6 6 0 0 1-1.8-4.5q0-2.8 1.9-4.5a7 7 0 0 1 5-1.7m-352.6 9.7 10 10.4 9.8-10.4 3 2.9-10 10.3 10 10.4-3 2.8-9.8-10.3-10 10.3-2.8-2.8 9.9-10.4-10-10.3zm106.5 8a5 5 0 0 1 3.6 1.3q1.3 1 1.3 3.3t-1.3 3.5a5 5 0 0 1-3.6 1.3q-2.2 0-3.6-1.3-1.3-1.2-1.3-3.5t1.3-3.3q1.4-1.3 3.6-1.3m344.5 6.8q-5.2 0-8.5 3t-3.3 8.1 3.3 8q3.3 3 8.5 3t8.6-3 3.3-8-3.3-8-8.6-3.1m-246 10q3 0 4.9 1.7t1.9 4.4-2 4.5a7 7 0 0 1-4.8 1.7q-3 0-5-1.7a6 6 0 0 1-1.8-4.5q0-2.7 1.8-4.4a7 7 0 0 1 5-1.7m147.6 0q3 0 5 1.7 1.8 1.6 1.8 4.4t-1.9 4.5a7 7 0 0 1-4.9 1.7q-3 0-5-1.7a6 6 0 0 1-1.8-4.5q0-2.7 1.9-4.4a7 7 0 0 1 5-1.7" style="fill:#f73569;fill-opacity:1;stroke-width:29.656;stroke-linecap:square;stroke-linejoin:round;paint-order:stroke markers fill;stop-color:#000" transform="matrix(.3363 0 0 .3381 113.5 366.1)"/>
        <path d="M919.4 27.2q-1.8 0-3.2 1.4t-1.3 3.2v49q0 1.7 1.2 3 1.3 1.3 3 1.3h64a4 4 0 0 0 3.1-1.3q1.4-1.3 1.3-3V38.6a4 4 0 0 0-1.3-3 4 4 0 0 0-3-1.4h-36.8v-2.5q0-1.8-1.4-3.2-1.2-1.4-3.1-1.4z" style="font-style:normal;font-weight:400;font-size:40px;line-height:1.25;font-family:sans-serif;white-space:pre;shape-inside:url(#b);fill:#f73569;fill-opacity:1;stroke:none;stroke-width:2.96561" transform="matrix(.3363 0 0 .3381 52.4 239)"/>
        <text xml:space="preserve" style="font-style:normal;font-weight:400;font-size:40px;line-height:1.25;font-family:sans-serif;white-space:pre;shape-inside:url(#k);fill:#f73569;fill-opacity:1;stroke:none;stroke-width:1.15484" transform="matrix(.8636 0 0 .8682 308.5 517.3)"><tspan x="-174.6" y="-243.2"><tspan style="font-family:&quot;JetBrainsMono Nerd Font Mono&quot;;-inkscape-font-specification:&quot;JetBrainsMono Nerd Font Mono&quot;">󱞩</tspan></tspan></text>
      </g>
    </g>
  </g>
</svg>
